<svg width="0" height="0" class="hidden">
  <symbol fill="none" xmlns="http://www.w3.org/2000/svg" viewBox="0 0 24 24" id="video-line">
    <path fill-rule="evenodd" clip-rule="evenodd" d="M3 3.993C3 3.445 3.445 3 3.993 3h16.014c.548 0 .993.445.993.993v16.014a.994.994 0 01-.993.993H3.993A.994.994 0 013 20.007V3.993zM5 5v14h14V5H5zm5.622 3.415l4.879 3.252a.4.4 0 010 .666l-4.88 3.252a.4.4 0 01-.621-.332V8.747a.4.4 0 01.622-.332z" fill="#000"></path>
  </symbol>
  <symbol fill="none" xmlns="http://www.w3.org/2000/svg" viewBox="0 0 24 24" id="video-fill">
    <path fill-rule="evenodd" clip-rule="evenodd" d="M3 3.993C3 3.445 3.445 3 3.993 3h16.014c.548 0 .993.445.993.993v16.014a.994.994 0 01-.993.993H3.993A.994.994 0 013 20.007V3.993zm7.622 4.422a.4.4 0 00-.622.332v6.506a.4.4 0 00.622.332l4.879-3.252a.4.4 0 000-.666l-4.88-3.252h.001z" fill="#000"></path>
  </symbol>
  <symbol fill="none" xmlns="http://www.w3.org/2000/svg" viewBox="0 0 24 24" id="user-line">
    <path fill-rule="evenodd" clip-rule="evenodd" d="M4 22a8 8 0 1116 0h-2a6 6 0 00-12 0H4zm8-9c-3.315 0-6-2.685-6-6s2.685-6 6-6 6 2.685 6 6-2.685 6-6 6zm0-2c2.21 0 4-1.79 4-4s-1.79-4-4-4-4 1.79-4 4 1.79 4 4 4z" fill="#000"></path>
  </symbol>
  <symbol fill="none" xmlns="http://www.w3.org/2000/svg" viewBox="0 0 24 24" id="user-fill">
    <path fill-rule="evenodd" clip-rule="evenodd" d="M4 22a8 8 0 1116 0H4zm8-9c-3.315 0-6-2.685-6-6s2.685-6 6-6 6 2.685 6 6-2.685 6-6 6z" fill="#000"></path>
  </symbol>
  <symbol fill="none" xmlns="http://www.w3.org/2000/svg" viewBox="0 0 24 24" id="Twitter">
    <path clip-rule="evenodd" d="M23 3a10.9 10.9 0 01-3.14 1.53 4.48 4.48 0 00-7.86 3v1A10.66 10.66 0 013 4s-4 9 5 13a11.64 11.64 0 01-7 2c9 5 20 0 20-11.5 0-.279-.028-.556-.08-.83A7.72 7.72 0 0023 3z" stroke="#000" stroke-width="2" stroke-linecap="round" stroke-linejoin="round"></path>
  </symbol>
  <symbol fill="none" xmlns="http://www.w3.org/2000/svg" viewBox="0 0 24 24" id="thumb-up-line">
    <path fill-rule="evenodd" clip-rule="evenodd" d="M14.6 8H21a2 2 0 012 2v2.104a2 2 0 01-.15.762l-3.095 7.515a1 1 0 01-.925.619H2a1 1 0 01-1-1V10a1 1 0 011-1h3.482a1 1 0 00.817-.423L11.752.85a.5.5 0 01.632-.159l1.814.907a2.5 2.5 0 011.305 2.853L14.6 8zM7 10.588V19h11.16L21 12.104V10h-6.4a2 2 0 01-1.938-2.493l.903-3.548a.5.5 0 00-.261-.571l-.661-.33-4.71 6.672c-.25.354-.57.644-.933.858zM5 11H3v8h2v-8z" fill="#000"></path>
  </symbol>
  <symbol fill="none" xmlns="http://www.w3.org/2000/svg" viewBox="0 0 24 24" id="thumb-up-fill">
    <path fill-rule="evenodd" clip-rule="evenodd" d="M2 9h3v12H2a1 1 0 01-1-1V10a1 1 0 011-1zm5.293-1.293l6.4-6.4a.5.5 0 01.654-.047l.853.64a1.5 1.5 0 01.553 1.57L14.6 8H21a2 2 0 012 2v2.104a2 2 0 01-.15.762l-3.095 7.515a1 1 0 01-.925.619H8a1 1 0 01-1-1V8.414a1 1 0 01.293-.707z" fill="#000"></path>
  </symbol>
  <symbol fill="none" xmlns="http://www.w3.org/2000/svg" viewBox="0 0 24 24" id="thumb-down-line">
    <path fill-rule="evenodd" clip-rule="evenodd" d="M9.4 16H3a2 2 0 01-2-2v-2.104a2 2 0 01.15-.762L4.246 3.62A1 1 0 015.17 3H22a1 1 0 011 1v10a1 1 0 01-1 1h-3.482a1 1 0 00-.817.423l-5.453 7.726a.5.5 0 01-.632.159L9.802 22.4a2.5 2.5 0 01-1.305-2.853L9.4 16zm7.6-2.588V5H5.84L3 11.896V14h6.4a2 2 0 011.938 2.493l-.903 3.548a.5.5 0 00.261.571l.661.33 4.71-6.672c.25-.354.57-.644.933-.858zM19 13h2V5h-2v8z" fill="#000"></path>
  </symbol>
  <symbol fill="none" xmlns="http://www.w3.org/2000/svg" viewBox="0 0 24 24" id="thumb-down-fill">
    <path fill-rule="evenodd" clip-rule="evenodd" d="M22 15h-3V3h3a1 1 0 011 1v10a1 1 0 01-1 1zm-5.293 1.293l-6.4 6.4a.5.5 0 01-.654.047L8.8 22.1a1.5 1.5 0 01-.553-1.57L9.4 16H3a2 2 0 01-2-2v-2.104a2 2 0 01.15-.762L4.246 3.62A1 1 0 015.17 3H16a1 1 0 011 1v11.586a1 1 0 01-.293.707z" fill="#000"></path>
  </symbol>
  <symbol fill="none" xmlns="http://www.w3.org/2000/svg" viewBox="0 0 24 24" id="star-line">
    <path fill-rule="evenodd" clip-rule="evenodd" d="M12 18.26l-7.053 3.948 1.575-7.928L.587 8.792l8.027-.952L12 .5l3.386 7.34 8.027.952-5.935 5.488 1.575 7.928L12 18.26zm0-2.292l4.247 2.377-.949-4.773 3.573-3.305-4.833-.573L12 5.275l-2.038 4.42-4.833.572 3.573 3.305-.949 4.773L12 15.968z" fill="#000"></path>
  </symbol>
  <symbol fill="none" xmlns="http://www.w3.org/2000/svg" viewBox="0 0 24 24" id="star-fill">
    <path fill-rule="evenodd" clip-rule="evenodd" d="M12 18.26l-7.053 3.948 1.575-7.928L.587 8.792l8.027-.952L12 .5l3.386 7.34 8.027.952-5.935 5.488 1.575 7.928L12 18.26z" fill="#000"></path>
  </symbol>
  <symbol fill="none" xmlns="http://www.w3.org/2000/svg" viewBox="0 0 24 24" id="smartphone-line">
    <path fill-rule="evenodd" clip-rule="evenodd" d="M7 4v16h10V4H7zM6 2h12a1 1 0 011 1v18a1 1 0 01-1 1H6a1 1 0 01-1-1V3a1 1 0 011-1zm6 15a1 1 0 110 2 1 1 0 010-2z" fill="#000"></path>
  </symbol>
  <symbol fill="none" xmlns="http://www.w3.org/2000/svg" viewBox="0 0 24 24" id="smartphone-fill">
    <path fill-rule="evenodd" clip-rule="evenodd" d="M6 2h12a1 1 0 011 1v18a1 1 0 01-1 1H6a1 1 0 01-1-1V3a1 1 0 011-1zm6 15a1 1 0 100 2 1 1 0 000-2z" fill="#000"></path>
  </symbol>
  <symbol fill="none" xmlns="http://www.w3.org/2000/svg" viewBox="0 0 24 24" id="shopping-cart-line">
    <path fill-rule="evenodd" clip-rule="evenodd" d="M4 6.414L.757 3.172l1.415-1.415L5.414 5h15.242a1 1 0 01.958 1.287l-2.4 8a1 1 0 01-.958.713H6v2h11v2H5a1 1 0 01-1-1V6.414zM6 7v6h11.512l1.8-6H6zm-.5 16a1.5 1.5 0 110-3 1.5 1.5 0 010 3zm12 0a1.5 1.5 0 110-3 1.5 1.5 0 010 3z" fill="#000"></path>
  </symbol>
  <symbol fill="none" xmlns="http://www.w3.org/2000/svg" viewBox="0 0 24 24" id="shopping-cart-fill">
    <path fill-rule="evenodd" clip-rule="evenodd" d="M4 6.414L.757 3.172l1.415-1.415L5.414 5h15.242a1 1 0 01.958 1.287l-2.4 8a1 1 0 01-.958.713H6v2h11v2H5a1 1 0 01-1-1V6.414zM5.5 23a1.5 1.5 0 110-3 1.5 1.5 0 010 3zm12 0a1.5 1.5 0 110-3 1.5 1.5 0 010 3z" fill="#000"></path>
  </symbol>
  <symbol fill="none" xmlns="http://www.w3.org/2000/svg" viewBox="0 0 24 24" id="shopping-basket-line">
    <path fill-rule="evenodd" clip-rule="evenodd" d="M12 2a6 6 0 016 6v1h4v2h-1.167l-.757 9.083a1 1 0 01-.996.917H4.92a1 1 0 01-.996-.917L3.166 11H2V9h4V8a6 6 0 016-6zm6.826 9H5.173l.667 8h12.319l.667-8zM13 13v4h-2v-4h2zm-4 0v4H7v-4h2zm8 0v4h-2v-4h2zm-5-9a4 4 0 00-3.995 3.8L8 8v1h8V8a4 4 0 00-3.8-3.995L12 4z" fill="#000"></path>
  </symbol>
  <symbol fill="none" xmlns="http://www.w3.org/2000/svg" viewBox="0 0 24 24" id="shopping-basket-fill">
    <path fill-rule="evenodd" clip-rule="evenodd" d="M12 2a6 6 0 016 6v1h4v2h-1.167l-.757 9.083a1 1 0 01-.996.917H4.92a1 1 0 01-.996-.917L3.166 11H2V9h4V8a6 6 0 016-6zm1 11h-2v4h2v-4zm-4 0H7v4h2v-4zm8 0h-2v4h2v-4zm-5-9a4 4 0 00-3.995 3.8L8 8v1h8V8a4 4 0 00-3.8-3.995L12 4z" fill="#000"></path>
  </symbol>
  <symbol fill="none" xmlns="http://www.w3.org/2000/svg" viewBox="0 0 24 24" id="share-line">
    <path fill-rule="evenodd" clip-rule="evenodd" d="M13.12 17.023l-4.199-2.29a4 4 0 110-5.465l4.2-2.29a4 4 0 11.959 1.755l-4.2 2.29a4.008 4.008 0 010 1.954l4.199 2.29a4 4 0 11-.959 1.755v.001zM6 14a2 2 0 100-4 2 2 0 000 4zm11-6a2 2 0 100-4 2 2 0 000 4zm0 12a2 2 0 100-4 2 2 0 000 4z" fill="#000"></path>
  </symbol>
  <symbol fill="none" xmlns="http://www.w3.org/2000/svg" viewBox="0 0 24 24" id="share-fill">
    <path fill-rule="evenodd" clip-rule="evenodd" d="M13.576 17.271l-5.11-2.787a3.5 3.5 0 110-4.968l5.11-2.787a3.5 3.5 0 11.958 1.755l-5.11 2.787c.102.48.102.977 0 1.458l5.11 2.787a3.5 3.5 0 11-.958 1.755z" fill="#000"></path>
  </symbol>
  <symbol fill="none" xmlns="http://www.w3.org/2000/svg" viewBox="0 0 24 24" id="settings-line">
    <path fill-rule="evenodd" clip-rule="evenodd" d="M3.34 17a10.017 10.017 0 01-.978-2.326 3 3 0 00.002-5.347A9.99 9.99 0 014.865 4.99a3 3 0 004.631-2.674 9.99 9.99 0 015.007.002 3 3 0 004.632 2.672A9.99 9.99 0 0120.66 7c.433.749.757 1.53.978 2.326a3 3 0 00-.002 5.347 9.99 9.99 0 01-2.501 4.337 3 3 0 00-4.631 2.674 9.99 9.99 0 01-5.007-.002 3 3 0 00-4.632-2.672A10.016 10.016 0 013.34 17zm5.66.196a4.993 4.993 0 012.25 2.77c.499.047 1 .048 1.499.001A4.993 4.993 0 0115 17.197a4.993 4.993 0 013.525-.565c.29-.408.54-.843.748-1.298A4.993 4.993 0 0118 12c0-1.26.47-2.437 1.273-3.334-.21-.455-.46-.89-.75-1.298A4.993 4.993 0 0115 6.804a4.993 4.993 0 01-2.25-2.77c-.499-.047-1-.048-1.499-.001A4.993 4.993 0 019 6.803a4.993 4.993 0 01-3.525.565 7.99 7.99 0 00-.748 1.298A4.993 4.993 0 016 12a4.99 4.99 0 01-1.273 3.334c.21.455.46.89.75 1.298A4.993 4.993 0 019 17.196zM12 15a3 3 0 110-6 3 3 0 010 6zm0-2a1 1 0 100-2 1 1 0 000 2z" fill="#000"></path>
  </symbol>
  <symbol fill="none" xmlns="http://www.w3.org/2000/svg" viewBox="0 0 24 24" id="settings-fill">
    <path fill-rule="evenodd" clip-rule="evenodd" d="M9.954 2.21a9.99 9.99 0 014.091-.002A3.993 3.993 0 0016 5.07a3.993 3.993 0 003.457.261A9.99 9.99 0 0121.5 8.876 3.993 3.993 0 0020 12a3.99 3.99 0 001.502 3.124 10.043 10.043 0 01-2.046 3.543 3.993 3.993 0 00-3.456.261 3.993 3.993 0 00-1.954 2.86 9.99 9.99 0 01-4.091.004A3.993 3.993 0 008 18.927a3.993 3.993 0 00-3.457-.26A9.99 9.99 0 012.5 15.121 3.993 3.993 0 004 11.999a3.993 3.993 0 00-1.502-3.124 10.043 10.043 0 012.046-3.543A3.993 3.993 0 008 5.071a3.993 3.993 0 001.954-2.86V2.21zM12 15a3 3 0 100-6 3 3 0 000 6z" fill="#000"></path>
  </symbol>
  <symbol fill="none" xmlns="http://www.w3.org/2000/svg" viewBox="0 0 24 24" id="server-line">
    <path fill-rule="evenodd" clip-rule="evenodd" d="M5 11h14V5H5v6zm16-7v16a1 1 0 01-1 1H4a1 1 0 01-1-1V4a1 1 0 011-1h16a1 1 0 011 1zm-2 9H5v6h14v-6zM7 15h3v2H7v-2zm0-8h3v2H7V7z" fill="#000"></path>
  </symbol>
  <symbol fill="none" xmlns="http://www.w3.org/2000/svg" viewBox="0 0 24 24" id="server-fill">
    <path fill-rule="evenodd" clip-rule="evenodd" d="M4 3h16a1 1 0 011 1v7H3V4a1 1 0 011-1zM3 13h18v7a1 1 0 01-1 1H4a1 1 0 01-1-1v-7zm4 3v2h3v-2H7zM7 6v2h3V6H7z" fill="#000"></path>
  </symbol>
  <symbol fill="none" xmlns="http://www.w3.org/2000/svg" viewBox="0 0 24 24" id="search-line">
    <path fill-rule="evenodd" clip-rule="evenodd" d="M18.031 16.617l4.283 4.282-1.415 1.415-4.282-4.283A8.96 8.96 0 0111 20c-4.968 0-9-4.032-9-9s4.032-9 9-9 9 4.032 9 9a8.96 8.96 0 01-1.969 5.617zm-2.006-.742A6.977 6.977 0 0018 11c0-3.868-3.133-7-7-7-3.868 0-7 3.132-7 7 0 3.867 3.132 7 7 7a6.977 6.977 0 004.875-1.975l.15-.15z" fill="#000"></path>
  </symbol>
  <symbol fill="none" xmlns="http://www.w3.org/2000/svg" viewBox="0 0 24 24" id="search-fill">
    <path fill-rule="evenodd" clip-rule="evenodd" d="M18.031 16.617l4.283 4.282-1.415 1.415-4.282-4.283A8.96 8.96 0 0111 20c-4.968 0-9-4.032-9-9s4.032-9 9-9 9 4.032 9 9a8.96 8.96 0 01-1.969 5.617z" fill="#000"></path>
  </symbol>
  <symbol fill="none" xmlns="http://www.w3.org/2000/svg" viewBox="0 0 24 24" id="save-line">
    <path fill-rule="evenodd" clip-rule="evenodd" d="M5 5v14h14V7.828L16.172 5H5zM4 3h13l3.707 3.707a1 1 0 01.293.707V20a1 1 0 01-1 1H4a1 1 0 01-1-1V4a1 1 0 011-1zm8 15a3 3 0 110-6 3 3 0 010 6zM6 6h9v4H6V6z" fill="#4F4F4F"></path>
  </symbol>
  <symbol fill="none" xmlns="http://www.w3.org/2000/svg" viewBox="0 0 24 24" id="save-fill">
    <path fill-rule="evenodd" clip-rule="evenodd" d="M4 3h13l3.707 3.707a1 1 0 01.293.707V20a1 1 0 01-1 1H4a1 1 0 01-1-1V4a1 1 0 011-1zm8 15a3 3 0 100-6 3 3 0 000 6zM5 5v4h10V5H5z" fill="#000"></path>
  </symbol>
  <symbol fill="none" xmlns="http://www.w3.org/2000/svg" viewBox="0 0 24 24" id="question-line">
    <path fill-rule="evenodd" clip-rule="evenodd" d="M12 22C6.477 22 2 17.523 2 12S6.477 2 12 2s10 4.477 10 10-4.477 10-10 10zm0-2a8 8 0 100-16 8 8 0 000 16zm-1-5h2v2h-2v-2zm2-1.645V14h-2v-1.5a1 1 0 011-1 1.5 1.5 0 10-1.471-1.794l-1.962-.393A3.501 3.501 0 1113 13.355z" fill="#000"></path>
  </symbol>
  <symbol fill="none" xmlns="http://www.w3.org/2000/svg" viewBox="0 0 24 24" id="question-fill">
    <path fill-rule="evenodd" clip-rule="evenodd" d="M12 22C6.477 22 2 17.523 2 12S6.477 2 12 2s10 4.477 10 10-4.477 10-10 10zm-1-7v2h2v-2h-2zm2-1.645A3.502 3.502 0 0012 6.5a3.501 3.501 0 00-3.433 2.813l1.962.393A1.5 1.5 0 1112 11.5a1 1 0 00-1 1V14h2v-.645z" fill="#000"></path>
  </symbol>
  <symbol fill="none" xmlns="http://www.w3.org/2000/svg" viewBox="0 0 24 24" id="price-tag-line">
    <path fill-rule="evenodd" clip-rule="evenodd" d="M10.9 2.1l9.899 1.415 1.414 9.9-9.192 9.192a1 1 0 01-1.414 0l-9.9-9.9a1 1 0 010-1.414L10.9 2.1zm.707 2.122L3.828 12l8.486 8.485 7.778-7.778-1.06-7.425-7.425-1.06zm2.12 6.364a2 2 0 112.83-2.829 2 2 0 01-2.83 2.829z" fill="#000"></path>
  </symbol>
  <symbol fill="none" xmlns="http://www.w3.org/2000/svg" viewBox="0 0 24 24" id="price-tag-fill">
    <path fill-rule="evenodd" clip-rule="evenodd" d="M10.9 2.1l9.899 1.415 1.414 9.9-9.192 9.192a1 1 0 01-1.414 0l-9.9-9.9a1 1 0 010-1.414L10.9 2.1zm2.828 8.486a2 2 0 102.828-2.829 2 2 0 00-2.828 2.829z" fill="#000"></path>
  </symbol>
  <symbol fill="none" xmlns="http://www.w3.org/2000/svg" viewBox="0 0 24 24" id="pie-chart-line">
    <path fill-rule="evenodd" clip-rule="evenodd" d="M11 .543c.33-.029.663-.043 1-.043C18.351.5 23.5 5.649 23.5 12c0 .337-.014.67-.043 1h-1.506c-.502 5.053-4.766 9-9.951 9-5.523 0-10-4.477-10-10 0-5.185 3.947-9.449 9-9.95V.542v.001zM11 13V4.062A8.001 8.001 0 0012 20a8 8 0 007.938-7H11zm10.448-2A9.503 9.503 0 0013 2.552V11h8.448z" fill="#000"></path>
  </symbol>
  <symbol fill="none" xmlns="http://www.w3.org/2000/svg" viewBox="0 0 24 24" id="pie-chart-fill">
    <path fill-rule="evenodd" clip-rule="evenodd" d="M11 2.05V13h10.95c-.501 5.053-4.765 9-9.95 9-5.523 0-10-4.477-10-10 0-5.185 3.947-9.449 9-9.95zm2-1.507C18.553 1.02 22.979 5.447 23.457 11H13V.543z" fill="#000"></path>
  </symbol>
  <symbol fill="none" xmlns="http://www.w3.org/2000/svg" viewBox="0 0 24 24" id="phone-line">
    <path fill-rule="evenodd" clip-rule="evenodd" d="M9.366 10.682a10.555 10.555 0 003.952 3.952l.884-1.238a1 1 0 011.294-.296 11.422 11.422 0 004.583 1.364 1 1 0 01.921.997v4.462a1 1 0 01-.898.995A15.51 15.51 0 0118.5 21C9.94 21 3 14.06 3 5.5c0-.538.027-1.072.082-1.602A1 1 0 014.077 3h4.462a1 1 0 01.997.921A11.422 11.422 0 0010.9 8.504a1 1 0 01-.296 1.294l-1.238.884zm-2.522-.657l1.9-1.357A13.41 13.41 0 017.647 5H5.01c-.006.166-.009.333-.009.5C5 12.956 11.044 19 18.5 19c.167 0 .334-.003.5-.01v-2.637a13.413 13.413 0 01-3.668-1.097l-1.357 1.9a12.445 12.445 0 01-1.588-.75l-.058-.033a12.556 12.556 0 01-4.702-4.702l-.033-.058a12.444 12.444 0 01-.75-1.588z" fill="#000"></path>
  </symbol>
  <symbol fill="none" xmlns="http://www.w3.org/2000/svg" viewBox="0 0 24 24" id="phone-fill">
    <path fill-rule="evenodd" clip-rule="evenodd" d="M21 16.42v3.536a1 1 0 01-.93.998c-.437.03-.794.046-1.07.046-8.837 0-16-7.163-16-16 0-.276.015-.633.046-1.07A1 1 0 014.044 3H7.58a.5.5 0 01.498.45c.023.23.044.413.064.552A13.9 13.9 0 009.35 8.003c.095.2.033.439-.147.567l-2.158 1.542a13.047 13.047 0 006.844 6.844l1.54-2.154a.462.462 0 01.573-.149 13.9 13.9 0 004 1.205c.139.02.322.042.55.064a.5.5 0 01.449.498H21z" fill="#000"></path>
  </symbol>
  <symbol fill="none" xmlns="http://www.w3.org/2000/svg" viewBox="0 0 24 24" id="notification-line">
    <path fill-rule="evenodd" clip-rule="evenodd" d="M22 20H2v-2h1v-6.969C3 6.043 7.03 2 12 2s9 4.043 9 9.031V18h1v2zM5 18h14v-6.969C19 7.148 15.866 4 12 4s-7 3.148-7 7.031V18zm4.5 3h5a2.5 2.5 0 01-5 0z" fill="#000"></path>
  </symbol>
  <symbol fill="none" xmlns="http://www.w3.org/2000/svg" viewBox="0 0 24 24" id="notification-fill">
    <path fill-rule="evenodd" clip-rule="evenodd" d="M22 20H2v-2h1v-6.969C3 6.043 7.03 2 12 2s9 4.043 9 9.031V18h1v2zM9.5 21h5a2.5 2.5 0 01-5 0z" fill="#000"></path>
  </symbol>
  <symbol fill="none" xmlns="http://www.w3.org/2000/svg" viewBox="0 0 24 24" id="notification-badge-line">
    <path fill-rule="evenodd" clip-rule="evenodd" d="M13.341 4A5.989 5.989 0 0013 6H5v14h14v-8a6 6 0 002-.341V21a1 1 0 01-1 1H4a1 1 0 01-1-1V5a1 1 0 011-1h9.341zM19 8a2 2 0 100-4 2 2 0 000 4zm0 2a4 4 0 110-8 4 4 0 010 8z" fill="#000"></path>
  </symbol>
  <symbol fill="none" xmlns="http://www.w3.org/2000/svg" viewBox="0 0 24 24" id="notification-badge-fill">
    <path fill-rule="evenodd" clip-rule="evenodd" d="M13.341 4A6 6 0 0021 11.659V21a1 1 0 01-1 1H4a1 1 0 01-1-1V5a1 1 0 011-1h9.341zM19 10a4 4 0 110-8 4 4 0 010 8z" fill="#000"></path>
  </symbol>
  <symbol fill="none" xmlns="http://www.w3.org/2000/svg" viewBox="0 0 24 24" id="music-line">
    <path fill-rule="evenodd" clip-rule="evenodd" d="M20 3v14a4 4 0 11-2-3.465V5H9v12a4 4 0 11-2-3.465V3h13zM5 19a2 2 0 100-4 2 2 0 000 4zm11 0a2 2 0 100-4 2 2 0 000 4z" fill="#000"></path>
  </symbol>
  <symbol fill="none" xmlns="http://www.w3.org/2000/svg" viewBox="0 0 24 24" id="music-fill">
    <path fill-rule="evenodd" clip-rule="evenodd" d="M20 3v14a4 4 0 11-2-3.465V6H9v11a4 4 0 11-2-3.465V3h13z" fill="#000"></path>
  </symbol>
  <symbol fill="none" xmlns="http://www.w3.org/2000/svg" viewBox="0 0 24 24" id="mic-line">
    <path fill-rule="evenodd" clip-rule="evenodd" d="M12 3a3 3 0 00-3 3v4a3 3 0 106 0V6a3 3 0 00-3-3zm0-2a5 5 0 015 5v4a5 5 0 01-10 0V6a5 5 0 015-5zM3.055 11H5.07a7.002 7.002 0 0013.858 0h2.016A9.004 9.004 0 0113 18.945V23h-2v-4.055A9.004 9.004 0 013.055 11z" fill="#000"></path>
  </symbol>
  <symbol fill="none" xmlns="http://www.w3.org/2000/svg" viewBox="0 0 24 24" id="mic-fill">
    <path fill-rule="evenodd" clip-rule="evenodd" d="M12 1a5 5 0 015 5v4a5 5 0 01-10 0V6a5 5 0 015-5zM3.055 11H5.07a7.002 7.002 0 0013.858 0h2.016A9.004 9.004 0 0113 18.945V23h-2v-4.055A9.004 9.004 0 013.055 11z" fill="#000"></path>
  </symbol>
  <symbol fill="none" xmlns="http://www.w3.org/2000/svg" viewBox="0 0 24 24" id="menu-line">
    <path fill-rule="evenodd" clip-rule="evenodd" d="M3 4h18v2H3V4zm0 7h18v2H3v-2zm0 7h18v2H3v-2z" fill="#000"></path>
  </symbol>
  <symbol fill="none" xmlns="http://www.w3.org/2000/svg" viewBox="0 0 24 24" id="menu-fill">
    <path fill-rule="evenodd" clip-rule="evenodd" d="M3 4h18v2H3V4zm0 7h18v2H3v-2zm0 7h18v2H3v-2z" fill="#000"></path>
  </symbol>
  <symbol fill="none" xmlns="http://www.w3.org/2000/svg" viewBox="0 0 24 24" id="map-pin-line">
    <path fill-rule="evenodd" clip-rule="evenodd" d="M12 23.728l-6.364-6.364a9 9 0 1112.728 0L12 23.728zm4.95-7.778a7 7 0 10-9.9 0L12 20.9l4.95-4.95zM12 13a2 2 0 110-4 2 2 0 010 4z" fill="#000"></path>
  </symbol>
  <symbol fill="none" xmlns="http://www.w3.org/2000/svg" viewBox="0 0 24 24" id="map-pin-fill">
    <path fill-rule="evenodd" clip-rule="evenodd" d="M18.364 17.364L12 23.728l-6.364-6.364a9 9 0 1112.728 0zM12 13a2 2 0 100-4 2 2 0 000 4z" fill="#000"></path>
  </symbol>
  <symbol fill="none" xmlns="http://www.w3.org/2000/svg" viewBox="0 0 24 24" id="map-line">
    <path fill-rule="evenodd" clip-rule="evenodd" d="M2 5l7-3 6 3 6.303-2.701a.5.5 0 01.697.46V19l-7 3-6-3-6.303 2.701a.5.5 0 01-.697-.46V5zm14 14.395l4-1.714V5.033l-4 1.714v12.648zm-2-.131V6.736l-4-2v12.528l4 2zm-6-2.011V4.605L4 6.319v12.648l4-1.714z" fill="#000"></path>
  </symbol>
  <symbol fill="none" xmlns="http://www.w3.org/2000/svg" viewBox="0 0 24 24" id="map-fill">
    <path fill-rule="evenodd" clip-rule="evenodd" d="M2 5l7-3 6 3 6.303-2.701a.5.5 0 01.697.46V19l-7 3-6-3-6.303 2.701a.5.5 0 01-.697-.46V5zm13 14.764V7.176l-.065.028L9 4.236v12.588l.065-.028L15 19.764z" fill="#000"></path>
  </symbol>
  <symbol fill="none" xmlns="http://www.w3.org/2000/svg" viewBox="0 0 24 24" id="mail-line">
    <path fill-rule="evenodd" clip-rule="evenodd" d="M3 3h18a1 1 0 011 1v16a1 1 0 01-1 1H3a1 1 0 01-1-1V4a1 1 0 011-1zm17 4.238l-7.928 7.1L4 7.216V19h16V7.238zM4.511 5l7.55 6.662L19.502 5H4.511z" fill="#000"></path>
  </symbol>
  <symbol fill="none" xmlns="http://www.w3.org/2000/svg" viewBox="0 0 24 24" id="mail-fill">
    <path fill-rule="evenodd" clip-rule="evenodd" d="M3 3h18a1 1 0 011 1v16a1 1 0 01-1 1H3a1 1 0 01-1-1V4a1 1 0 011-1zm9.06 8.683L5.648 6.238 4.353 7.762l7.72 6.555 7.581-6.56-1.308-1.513-6.285 5.439h-.001z" fill="#000"></path>
  </symbol>
  <symbol fill="none" xmlns="http://www.w3.org/2000/svg" viewBox="0 0 24 24" id="mac-line">
    <path fill-rule="evenodd" clip-rule="evenodd" d="M14 18v2l2 1v1H8l-.004-.996L10 20v-2H2.992A.998.998 0 012 16.993V4.007C2 3.451 2.455 3 2.992 3h18.016c.548 0 .992.449.992 1.007v12.986c0 .556-.455 1.007-.992 1.007H14zM4 5v9h16V5H4z" fill="#000"></path>
  </symbol>
  <symbol fill="none" xmlns="http://www.w3.org/2000/svg" viewBox="0 0 24 24" id="mac-fill">
    <path fill-rule="evenodd" clip-rule="evenodd" d="M14 18v2l2 1v1H8l-.004-.996L10 20v-2H2.992A.998.998 0 012 16.993V4.007C2 3.451 2.455 3 2.992 3h18.016c.548 0 .992.449.992 1.007v12.986c0 .556-.455 1.007-.992 1.007H14zM4 14v2h16v-2H4z" fill="#000"></path>
  </symbol>
  <symbol fill="none" xmlns="http://www.w3.org/2000/svg" viewBox="0 0 24 24" id="macbook-line">
    <path fill-rule="evenodd" clip-rule="evenodd" d="M4 5v11h16V5H4zm-2-.993C2 3.451 2.455 3 2.992 3h18.016c.548 0 .992.449.992 1.007V18H2V4.007zM1 19h22v2H1v-2z" fill="#000"></path>
  </symbol>
  <symbol fill="none" xmlns="http://www.w3.org/2000/svg" viewBox="0 0 24 24" id="macbook-fill">
    <path fill-rule="evenodd" clip-rule="evenodd" d="M2 4.007C2 3.45 2.455 3 2.992 3h18.016c.548 0 .992.45.992 1.007V17H2V4.007zM1 19h22v2H1v-2z" fill="#000"></path>
  </symbol>
  <symbol fill="none" xmlns="http://www.w3.org/2000/svg" viewBox="0 0 24 24" id="lock-line">
    <path fill-rule="evenodd" clip-rule="evenodd" d="M19 10h1a1 1 0 011 1v10a1 1 0 01-1 1H4a1 1 0 01-1-1V11a1 1 0 011-1h1V9a7 7 0 1114 0v1zM5 12v8h14v-8H5zm6 2h2v4h-2v-4zm6-4V9A5 5 0 007 9v1h10z" fill="#000"></path>
  </symbol>
  <symbol fill="none" xmlns="http://www.w3.org/2000/svg" viewBox="0 0 24 24" id="lock-fill">
    <path fill-rule="evenodd" clip-rule="evenodd" d="M19 10h1a1 1 0 011 1v10a1 1 0 01-1 1H4a1 1 0 01-1-1V11a1 1 0 011-1h1V9a7 7 0 1114 0v1zm-2 0V9A5 5 0 007 9v1h10zm-6 4v4h2v-4h-2z" fill="#000"></path>
  </symbol>
  <symbol fill="none" xmlns="http://www.w3.org/2000/svg" viewBox="0 0 24 24" id="link-unlink-m">
    <path fill-rule="evenodd" clip-rule="evenodd" d="M17.657 14.828l-1.414-1.414L17.657 12A4 4 0 1012 6.343l-1.414 1.414-1.414-1.414 1.414-1.414a6 6 0 018.485 8.485l-1.414 1.414zm-2.829 2.829l-1.414 1.414a6 6 0 11-8.485-8.485l1.414-1.414 1.414 1.414L6.343 12A4 4 0 0012 17.657l1.414-1.414 1.414 1.414zm0-9.9l1.415 1.415-7.071 7.07-1.415-1.414 7.071-7.07v-.001zM5.775 2.293l1.932-.518L8.742 5.64l-1.931.518-1.036-3.864v-.001zm9.483 16.068l1.931-.518 1.036 3.864-1.932.518-1.035-3.864zM2.293 5.775l3.864 1.036-.518 1.931-3.864-1.035.518-1.932zm16.068 9.483l3.864 1.035-.518 1.932-3.864-1.036.518-1.931z" fill="#000"></path>
  </symbol>
  <symbol fill="none" xmlns="http://www.w3.org/2000/svg" viewBox="0 0 24 24" id="Instagram">
    <path fill-rule="evenodd" clip-rule="evenodd" d="M17 1H7a6 6 0 00-6 6v10a6 6 0 006 6h10a6 6 0 006-6V7a6 6 0 00-6-6zM7 3h10a4 4 0 014 4v10a4 4 0 01-4 4H7a4 4 0 01-4-4V7a4 4 0 014-4zm.577 6.709a5 5 0 108.933 4.496 5 5 0 00-8.933-4.496zm4.906-.72a3 3 0 11-.88 5.935 3 3 0 01.88-5.935zM18.51 6.5a1 1 0 00-1-1l-.127.007A1 1 0 0017.5 7.5l.127-.007a1 1 0 00.883-.993z" fill="#000"></path>
  </symbol>
  <symbol fill="none" xmlns="http://www.w3.org/2000/svg" viewBox="0 0 24 24" id="image-line">
    <path fill-rule="evenodd" clip-rule="evenodd" d="M4.828 21l-.02.02-.021-.02H2.992A.993.993 0 012 20.007V3.993A1 1 0 012.992 3h18.016c.548 0 .992.445.992.993v16.014a1 1 0 01-.992.993H4.828zM20 15V5H4v14L14 9l6 6zm0 2.828l-6-6L6.828 19H20v-1.172zM8 11a2 2 0 110-4 2 2 0 010 4z" fill="#000"></path>
  </symbol>
  <symbol fill="none" xmlns="http://www.w3.org/2000/svg" viewBox="0 0 24 24" id="image-fill">
    <path fill-rule="evenodd" clip-rule="evenodd" d="M20 5H4v14l9.292-9.294a1 1 0 011.414 0L20 15.01V5zM2 3.993A1 1 0 012.992 3h18.016c.548 0 .992.445.992.993v16.014a1 1 0 01-.992.993H2.992A.993.993 0 012 20.007V3.993zM8 11a2 2 0 110-4 2 2 0 010 4z" fill="#000"></path>
  </symbol>
  <symbol fill="none" xmlns="http://www.w3.org/2000/svg" viewBox="0 0 24 24" id="home-line">
    <path fill-rule="evenodd" clip-rule="evenodd" d="M19 21H5a1 1 0 01-1-1v-9H1l10.327-9.388a1 1 0 011.346 0L23 11h-3v9a1 1 0 01-1 1zM6 19h12V9.157l-6-5.454-6 5.454V19z" fill="#000"></path>
  </symbol>
  <symbol fill="none" xmlns="http://www.w3.org/2000/svg" viewBox="0 0 24 24" id="home-fill">
    <path fill-rule="evenodd" clip-rule="evenodd" d="M20 20a1 1 0 01-1 1H5a1 1 0 01-1-1v-9H1l10.327-9.388a1 1 0 011.346 0L23 11h-3v9z" fill="#000"></path>
  </symbol>
  <symbol fill="none" xmlns="http://www.w3.org/2000/svg" viewBox="0 0 24 24" id="heart-line">
    <path fill-rule="evenodd" clip-rule="evenodd" d="M12 22l-9.192-9.192c-2.18-2.568-2.066-6.42.353-8.84A6.5 6.5 0 0112 3.64a6.5 6.5 0 019.179 9.154L12 22zm7.662-10.509a4.5 4.5 0 00-6.355-6.337L12 6.282l-1.307-1.128a4.5 4.5 0 00-6.355 6.337l.114.132L12 19.172l7.548-7.549.114-.132z" fill="#000"></path>
  </symbol>
  <symbol fill="none" xmlns="http://www.w3.org/2000/svg" viewBox="0 0 24 24" id="heart-fill">
    <path fill-rule="evenodd" clip-rule="evenodd" d="M21.179 12.794l.013.014L12 22l-9.192-9.192.013-.014A6.5 6.5 0 0112 3.64a6.5 6.5 0 019.179 9.154z" fill="#000"></path>
  </symbol>
  <symbol fill="none" xmlns="http://www.w3.org/2000/svg" viewBox="0 0 24 24" id="headphone-line">
    <path fill-rule="evenodd" clip-rule="evenodd" d="M12 4a8 8 0 00-8 8h3a2 2 0 012 2v5a2 2 0 01-2 2H4a2 2 0 01-2-2v-7C2 6.477 6.477 2 12 2s10 4.477 10 10v7a2 2 0 01-2 2h-3a2 2 0 01-2-2v-5a2 2 0 012-2h3a8 8 0 00-8-8zM4 14v5h3v-5H4zm13 0v5h3v-5h-3z" fill="#000"></path>
  </symbol>
  <symbol fill="none" xmlns="http://www.w3.org/2000/svg" viewBox="0 0 24 24" id="headphone-fill">
    <path fill-rule="evenodd" clip-rule="evenodd" d="M4 12h3a2 2 0 012 2v5a2 2 0 01-2 2H4a2 2 0 01-2-2v-7C2 6.477 6.477 2 12 2s10 4.477 10 10v7a2 2 0 01-2 2h-3a2 2 0 01-2-2v-5a2 2 0 012-2h3a8 8 0 10-16 0z" fill="#000"></path>
  </symbol>
  <symbol fill="none" xmlns="http://www.w3.org/2000/svg" viewBox="0 0 24 24" id="global-line">
    <path fill-rule="evenodd" clip-rule="evenodd" d="M12 22C6.477 22 2 17.523 2 12S6.477 2 12 2s10 4.477 10 10-4.477 10-10 10zm-2.29-2.333A17.9 17.9 0 018.027 13H4.062a8.008 8.008 0 005.648 6.667zM10.03 13c.151 2.439.848 4.73 1.97 6.752A15.906 15.906 0 0013.97 13h-3.94zm9.908 0h-3.965a17.9 17.9 0 01-1.683 6.667A8.008 8.008 0 0019.938 13zM4.062 11h3.965A17.9 17.9 0 019.71 4.333 8.008 8.008 0 004.062 11zm5.969 0h3.938A15.904 15.904 0 0012 4.248 15.906 15.906 0 0010.03 11h.001zm4.259-6.667A17.9 17.9 0 0115.973 11h3.965a8.008 8.008 0 00-5.648-6.667z" fill="#000"></path>
  </symbol>
  <symbol fill="none" xmlns="http://www.w3.org/2000/svg" viewBox="0 0 24 24" id="global-fill">
    <path fill-rule="evenodd" clip-rule="evenodd" d="M2.05 13h5.477a17.9 17.9 0 002.925 8.88A10.005 10.005 0 012.05 13zm0-2a10.005 10.005 0 018.402-8.88A17.9 17.9 0 007.527 11H2.05zm19.9 0h-5.477a17.9 17.9 0 00-2.925-8.88A10.005 10.005 0 0121.95 11zm0 2a10.005 10.005 0 01-8.402 8.88A17.9 17.9 0 0016.473 13h5.478-.001zM9.53 13h4.94A15.908 15.908 0 0112 20.592 15.908 15.908 0 019.53 13zm0-2A15.908 15.908 0 0112 3.408 15.908 15.908 0 0114.47 11H9.53z" fill="#000"></path>
  </symbol>
  <symbol fill="none" xmlns="http://www.w3.org/2000/svg" viewBox="0 0 24 24" id="function-line">
    <path fill-rule="evenodd" clip-rule="evenodd" d="M3 3h8v8H3V3zm0 10h8v8H3v-8zM13 3h8v8h-8V3zm0 10h8v8h-8v-8zm2-8v4h4V5h-4zm0 10v4h4v-4h-4zM5 5v4h4V5H5zm0 10v4h4v-4H5z" fill="#000"></path>
  </symbol>
  <symbol fill="none" xmlns="http://www.w3.org/2000/svg" viewBox="0 0 24 24" id="function-fill">
    <path fill-rule="evenodd" clip-rule="evenodd" d="M4 5v14h16V7h-8.414l-2-2H4zm8.414 0H21a1 1 0 011 1v14a1 1 0 01-1 1H3a1 1 0 01-1-1V4a1 1 0 011-1h7.414l2 2z" fill="#000"></path>
  </symbol>
  <symbol fill="none" xmlns="http://www.w3.org/2000/svg" viewBox="0 0 24 24" id="folder-line">
    <path fill-rule="evenodd" clip-rule="evenodd" d="M3 3h8v8H3V3zm0 10h8v8H3v-8zM13 3h8v8h-8V3zm0 10h8v8h-8v-8z" fill="#000"></path>
  </symbol>
  <symbol fill="none" xmlns="http://www.w3.org/2000/svg" viewBox="0 0 24 24" id="folder-fill">
    <path fill-rule="evenodd" clip-rule="evenodd" d="M12.414 5H21a1 1 0 011 1v14a1 1 0 01-1 1H3a1 1 0 01-1-1V4a1 1 0 011-1h7.414l2 2z" fill="#000"></path>
  </symbol>
  <symbol fill="none" xmlns="http://www.w3.org/2000/svg" viewBox="0 0 24 24" id="flashlight-line">
    <path fill-rule="evenodd" clip-rule="evenodd" d="M13 9h8L11 24v-9H4l9-15v9zm-2 2V7.22L7.532 13H13v4.394L17.263 11H11z" fill="#000"></path>
  </symbol>
  <symbol fill="none" xmlns="http://www.w3.org/2000/svg" viewBox="0 0 24 24" id="flashlight-fill">
    <path fill-rule="evenodd" clip-rule="evenodd" d="M13 10h7l-9 13v-9H4l9-13v9z" fill="#000"></path>
  </symbol>
  <symbol fill="none" xmlns="http://www.w3.org/2000/svg" viewBox="0 0 24 24" id="flag-line">
    <path fill-rule="evenodd" clip-rule="evenodd" d="M4 17v5H2V3h19.138a.5.5 0 01.435.748L18 10l3.573 6.252a.5.5 0 01-.435.748H4zM4 5v10h14.554l-2.858-5 2.858-5H4z" fill="#000"></path>
  </symbol>
  <symbol fill="none" xmlns="http://www.w3.org/2000/svg" viewBox="0 0 24 24" id="flag-fill">
    <path fill-rule="evenodd" clip-rule="evenodd" d="M2 3h19.138a.5.5 0 01.435.748L18 10l3.573 6.252a.5.5 0 01-.435.748H4v5H2V3z" fill="#000"></path>
  </symbol>
  <symbol fill="none" xmlns="http://www.w3.org/2000/svg" viewBox="0 0 24 24" id="file-line">
    <path fill-rule="evenodd" clip-rule="evenodd" d="M9 2.003V2h10.998C20.55 2 21 2.455 21 2.992v18.016a.993.993 0 01-.993.992H3.993A1 1 0 013 20.993V8l6-5.997zM5.83 8H9V4.83L5.83 8zM11 4v5a1 1 0 01-1 1H5v10h14V4h-8z" fill="#000"></path>
  </symbol>
  <symbol fill="none" xmlns="http://www.w3.org/2000/svg" viewBox="0 0 24 24" id="file-fill">
    <path fill-rule="evenodd" clip-rule="evenodd" d="M3 8l6.003-6h10.995C20.55 2 21 2.455 21 2.992v18.016a.993.993 0 01-.993.992H3.993A1 1 0 013 20.993V8zm7-4.5L4.5 9H10V3.5z" fill="#000"></path>
  </symbol>
  <symbol fill="none" xmlns="http://www.w3.org/2000/svg" viewBox="0 0 24 24" id="Facebook">
    <path clip-rule="evenodd" d="M18 2h-3a5 5 0 00-5 5v3H7v4h3v8h4v-8h3l1-4h-4V7a1 1 0 011-1h3V2z" stroke="#000" stroke-width="2" stroke-linecap="round" stroke-linejoin="round"></path>
  </symbol>
  <symbol fill="none" xmlns="http://www.w3.org/2000/svg" viewBox="0 0 24 24" id="eye-line">
    <path fill-rule="evenodd" clip-rule="evenodd" d="M12 3c5.392 0 9.878 3.88 10.819 9-.94 5.12-5.427 9-10.819 9-5.392 0-9.878-3.88-10.819-9C2.121 6.88 6.608 3 12 3zm0 16c4.2 0 7.842-2.905 8.777-7a9.005 9.005 0 00-17.554 0A9.005 9.005 0 0012 19zm0-2.5a4.5 4.5 0 110-9 4.5 4.5 0 010 9zm0-2a2.5 2.5 0 100-5 2.5 2.5 0 000 5z" fill="#000"></path>
  </symbol>
  <symbol fill="none" xmlns="http://www.w3.org/2000/svg" viewBox="0 0 24 24" id="eye-fill">
    <path fill-rule="evenodd" clip-rule="evenodd" d="M1.181 12C2.121 6.88 6.608 3 12 3c5.392 0 9.878 3.88 10.819 9-.94 5.12-5.427 9-10.819 9-5.392 0-9.878-3.88-10.819-9zM12 17a5 5 0 100-10 5 5 0 000 10zm0-2a3 3 0 110-6 3 3 0 010 6z" fill="#000"></path>
  </symbol>
  <symbol fill="none" xmlns="http://www.w3.org/2000/svg" viewBox="0 0 24 24" id="edit-line">
    <path fill-rule="evenodd" clip-rule="evenodd" d="M6.414 16L16.556 5.858l-1.414-1.414L5 14.586V16h1.414zm.829 2H3v-4.243L14.435 2.322a1 1 0 011.414 0l2.829 2.829a1 1 0 010 1.414L7.243 18zM3 20h18v2H3v-2z" fill="#000"></path>
  </symbol>
  <symbol fill="none" xmlns="http://www.w3.org/2000/svg" viewBox="0 0 24 24" id="edit-fill">
    <path fill-rule="evenodd" clip-rule="evenodd" d="M7.243 18H3v-4.243L14.435 2.322a1 1 0 011.414 0l2.829 2.829a1 1 0 010 1.414L7.243 18zM3 20h18v2H3v-2z" fill="#000"></path>
  </symbol>
  <symbol fill="none" xmlns="http://www.w3.org/2000/svg" viewBox="0 0 24 24" id="Down">
    <path d="M6 9l6 6 6-6" stroke="#000" stroke-width="2" stroke-linecap="round" stroke-linejoin="round"></path>
  </symbol>
  <symbol fill="none" xmlns="http://www.w3.org/2000/svg" viewBox="0 0 24 24" id="delete-bin-line">
    <path fill-rule="evenodd" clip-rule="evenodd" d="M17 6h5v2h-2v13a1 1 0 01-1 1H5a1 1 0 01-1-1V8H2V6h5V3a1 1 0 011-1h8a1 1 0 011 1v3zm1 2H6v12h12V8zm-9 3h2v6H9v-6zm4 0h2v6h-2v-6zM9 4v2h6V4H9z" fill="#000"></path>
  </symbol>
  <symbol fill="none" xmlns="http://www.w3.org/2000/svg" viewBox="0 0 24 24" id="delete-bin-fill">
    <path fill-rule="evenodd" clip-rule="evenodd" d="M17 6h5v2h-2v13a1 1 0 01-1 1H5a1 1 0 01-1-1V8H2V6h5V3a1 1 0 011-1h8a1 1 0 011 1v3zm-8 5v6h2v-6H9zm4 0v6h2v-6h-2zM9 4v2h6V4H9z" fill="#000"></path>
  </symbol>
  <symbol fill="none" xmlns="http://www.w3.org/2000/svg" viewBox="0 0 24 24" id="computer-line">
    <path fill-rule="evenodd" clip-rule="evenodd" d="M4 16h16V5H4v11zm9 2v2h4v2H7v-2h4v-2H2.992A.998.998 0 012 16.993V4.007C2 3.451 2.455 3 2.992 3h18.016c.548 0 .992.449.992 1.007v12.986c0 .556-.455 1.007-.992 1.007H13z" fill="#000"></path>
  </symbol>
  <symbol fill="none" xmlns="http://www.w3.org/2000/svg" viewBox="0 0 24 24" id="computer-fill">
    <path fill-rule="evenodd" clip-rule="evenodd" d="M13 18v2h4v2H7v-2h4v-2H2.992A.998.998 0 012 16.993V4.007C2 3.451 2.455 3 2.992 3h18.016c.548 0 .992.449.992 1.007v12.986c0 .556-.455 1.007-.992 1.007H13z" fill="#4F4F4F"></path>
  </symbol>
  <symbol fill="none" xmlns="http://www.w3.org/2000/svg" viewBox="0 0 24 24" id="cloudy-line">
    <path fill-rule="evenodd" clip-rule="evenodd" d="M9.5 6a6.5 6.5 0 000 13h7a4.5 4.5 0 10-.957-8.898A6.502 6.502 0 009.5 6zm7 15h-7a8.5 8.5 0 117.215-12.997A6.5 6.5 0 0116.5 21z" fill="#000"></path>
  </symbol>
  <symbol fill="none" xmlns="http://www.w3.org/2000/svg" viewBox="0 0 24 24" id="cloudy-fill">
    <path fill-rule="evenodd" clip-rule="evenodd" d="M9 20.986a8.5 8.5 0 117.715-12.983A6.5 6.5 0 0117 20.981V21H9v-.014z" fill="#000"></path>
  </symbol>
  <symbol fill="none" xmlns="http://www.w3.org/2000/svg" viewBox="0 0 24 24" id="clipboard-line">
    <path fill-rule="evenodd" clip-rule="evenodd" d="M7 4V2h10v2h3.007c.548 0 .993.445.993.993v16.014a.994.994 0 01-.993.993H3.993A.994.994 0 013 21.007V4.993C3 4.445 3.445 4 3.993 4H7zm0 2H5v14h14V6h-2v2H7V6zm2-2v2h6V4H9z" fill="#000"></path>
  </symbol>
  <symbol fill="none" xmlns="http://www.w3.org/2000/svg" viewBox="0 0 24 24" id="clipboard-fill">
    <path fill-rule="evenodd" clip-rule="evenodd" d="M6 4v4h12V4h2.007c.548 0 .993.445.993.993v16.014a.994.994 0 01-.993.993H3.993A.994.994 0 013 21.007V4.993C3 4.445 3.445 4 3.993 4H6zm2-2h8v4H8V2z" fill="#000"></path>
  </symbol>
  <symbol fill="none" xmlns="http://www.w3.org/2000/svg" viewBox="0 0 24 24" id="checkbox-line">
    <path fill-rule="evenodd" clip-rule="evenodd" d="M4 3h16a1 1 0 011 1v16a1 1 0 01-1 1H4a1 1 0 01-1-1V4a1 1 0 011-1zm1 2v14h14V5H5zm6.003 11L6.76 11.757l1.414-1.414 2.829 2.829 5.656-5.657 1.415 1.414L11.003 16z" fill="#000"></path>
  </symbol>
  <symbol fill="none" xmlns="http://www.w3.org/2000/svg" viewBox="0 0 24 24" id="checkbox-fill">
    <path fill-rule="evenodd" clip-rule="evenodd" d="M4 3h16a1 1 0 011 1v16a1 1 0 01-1 1H4a1 1 0 01-1-1V4a1 1 0 011-1zm7.003 13l7.07-7.071-1.414-1.414-5.656 5.657-2.829-2.829-1.414 1.414L11.003 16z" fill="#000"></path>
  </symbol>
  <symbol fill="none" xmlns="http://www.w3.org/2000/svg" viewBox="0 0 24 24" id="checkbox-circle-line">
    <path fill-rule="evenodd" clip-rule="evenodd" d="M12 22C6.477 22 2 17.523 2 12S6.477 2 12 2s10 4.477 10 10-4.477 10-10 10zm0-2a8 8 0 100-16 8 8 0 000 16zm-.997-4L6.76 11.757l1.414-1.414 2.829 2.829 5.656-5.657 1.415 1.414L11.003 16z" fill="#000"></path>
  </symbol>
  <symbol fill="none" xmlns="http://www.w3.org/2000/svg" viewBox="0 0 24 24" id="checkbox-circle-fill">
    <path fill-rule="evenodd" clip-rule="evenodd" d="M12 22C6.477 22 2 17.523 2 12S6.477 2 12 2s10 4.477 10 10-4.477 10-10 10zm-.997-6l7.07-7.071-1.414-1.414-5.656 5.657-2.829-2.829-1.414 1.414L11.003 16z" fill="#000"></path>
  </symbol>
  <symbol fill="none" xmlns="http://www.w3.org/2000/svg" viewBox="0 0 24 24" id="chat-line">
    <path fill-rule="evenodd" clip-rule="evenodd" d="M5.763 17H20V5H4v13.385L5.763 17zm.692 2L2 22.5V4a1 1 0 011-1h18a1 1 0 011 1v14a1 1 0 01-1 1H6.455z" fill="#000"></path>
  </symbol>
  <symbol fill="none" xmlns="http://www.w3.org/2000/svg" viewBox="0 0 24 24" id="chat-fill">
    <path fill-rule="evenodd" clip-rule="evenodd" d="M6.455 19L2 22.5V4a1 1 0 011-1h18a1 1 0 011 1v14a1 1 0 01-1 1H6.455z" fill="#000"></path>
  </symbol>
  <symbol fill="none" xmlns="http://www.w3.org/2000/svg" viewBox="0 0 24 24" id="calendar-line">
    <path fill-rule="evenodd" clip-rule="evenodd" d="M17 3h4a1 1 0 011 1v16a1 1 0 01-1 1H3a1 1 0 01-1-1V4a1 1 0 011-1h4V1h2v2h6V1h2v2zm-2 2H9v2H7V5H4v4h16V5h-3v2h-2V5zm5 6H4v8h16v-8z" fill="#000"></path>
  </symbol>
  <symbol fill="none" xmlns="http://www.w3.org/2000/svg" viewBox="0 0 24 24" id="calendar-fill">
    <path fill-rule="evenodd" clip-rule="evenodd" d="M2 11h20v9a1 1 0 01-1 1H3a1 1 0 01-1-1v-9zm15-8h4a1 1 0 011 1v5H2V4a1 1 0 011-1h4V1h2v2h6V1h2v2z" fill="#000"></path>
  </symbol>
  <symbol fill="none" xmlns="http://www.w3.org/2000/svg" viewBox="0 0 24 24" id="bookmark-line">
    <path fill-rule="evenodd" clip-rule="evenodd" d="M5 2h14a1 1 0 011 1v19.143a.5.5 0 01-.766.424L12 18.03l-7.234 4.536A.5.5 0 014 22.143V3a1 1 0 011-1zm13 2H6v15.432l6-3.761 6 3.761V4z" fill="#000"></path>
  </symbol>
  <symbol fill="none" xmlns="http://www.w3.org/2000/svg" viewBox="0 0 24 24" id="book-mark-line">
    <path fill-rule="evenodd" clip-rule="evenodd" d="M3 18.5V5a3 3 0 013-3h14a1 1 0 011 1v18a1 1 0 01-1 1H6.5A3.5 3.5 0 013 18.5zM19 20v-3H6.5a1.5 1.5 0 000 3H19zM10 4H6a1 1 0 00-1 1v10.337A3.485 3.485 0 016.5 15H19V4h-2v8l-3.5-2-3.5 2V4z" fill="#000"></path>
  </symbol>
  <symbol fill="none" xmlns="http://www.w3.org/2000/svg" viewBox="0 0 24 24" id="bookmark-fill">
    <path fill-rule="evenodd" clip-rule="evenodd" d="M5 2h14a1 1 0 011 1v19.143a.5.5 0 01-.766.424L12 18.03l-7.234 4.536A.5.5 0 014 22.143V3a1 1 0 011-1z" fill="#000"></path>
  </symbol>
  <symbol fill="none" xmlns="http://www.w3.org/2000/svg" viewBox="0 0 24 24" id="book-mark-fill">
    <path fill-rule="evenodd" clip-rule="evenodd" d="M20 22H6.5A3.5 3.5 0 013 18.5V5a3 3 0 013-3h14a1 1 0 011 1v18a1 1 0 01-1 1zm-1-2v-3H6.5a1.5 1.5 0 000 3H19zM10 4v8l3.5-2 3.5 2V4h-7z" fill="#000"></path>
  </symbol>
  <symbol fill="none" xmlns="http://www.w3.org/2000/svg" viewBox="0 0 24 24" id="bank-card-line">
    <path fill-rule="evenodd" clip-rule="evenodd" d="M3 3h18a1 1 0 011 1v16a1 1 0 01-1 1H3a1 1 0 01-1-1V4a1 1 0 011-1zm17 9H4v7h16v-7zm0-4V5H4v3h16z" fill="#000"></path>
  </symbol>
  <symbol fill="none" xmlns="http://www.w3.org/2000/svg" viewBox="0 0 24 24" id="bank-card-fill">
    <path fill-rule="evenodd" clip-rule="evenodd" d="M22 11v9a1 1 0 01-1 1H3a1 1 0 01-1-1v-9h20zm0-4H2V4a1 1 0 011-1h18a1 1 0 011 1v3z" fill="#000"></path>
  </symbol>
  <symbol fill="none" xmlns="http://www.w3.org/2000/svg" viewBox="0 0 24 24" id="attachment">
    <path fill-rule="evenodd" clip-rule="evenodd" d="M14.828 7.757l-5.656 5.657a1 1 0 101.414 1.414l5.657-5.656A3 3 0 1012 4.929l-5.657 5.657a5 5 0 107.071 7.07L19.071 12l1.414 1.414-5.657 5.657a7 7 0 11-9.9-9.9l5.658-5.656a5 5 0 017.07 7.07L12 16.244A3 3 0 117.757 12l5.657-5.657 1.414 1.414z" fill="#000"></path>
  </symbol>
  <symbol fill="none" xmlns="http://www.w3.org/2000/svg" viewBox="0 0 24 24" id="arrow-right-line">
    <path fill-rule="evenodd" clip-rule="evenodd" d="M16.172 11l-5.364-5.364 1.414-1.414L20 12l-7.778 7.778-1.414-1.414L16.172 13H4v-2h12.172z" fill="#000"></path>
  </symbol>
  <symbol fill="none" xmlns="http://www.w3.org/2000/svg" viewBox="0 0 24 24" id="arrow-right-fill">
    <path fill-rule="evenodd" clip-rule="evenodd" d="M12 13H4v-2h8V4l8 8-8 8v-7z" fill="#000"></path>
  </symbol>
  <symbol fill="none" xmlns="http://www.w3.org/2000/svg" viewBox="0 0 24 24" id="arrow-left-line">
    <path fill-rule="evenodd" clip-rule="evenodd" d="M7.828 11H20v2H7.828l5.364 5.364-1.414 1.414L4 12l7.778-7.778 1.414 1.414L7.828 11z" fill="#000"></path>
  </symbol>
  <symbol fill="none" xmlns="http://www.w3.org/2000/svg" viewBox="0 0 24 24" id="arrow-left-fill">
    <path fill-rule="evenodd" clip-rule="evenodd" d="M12 13v7l-8-8 8-8v7h8v2h-8z" fill="#000"></path>
  </symbol>
</svg>